<svg width="13" height="16" viewBox="0 0 13 16" fill="none" xmlns="http://www.w3.org/2000/svg">
<path d="M1 6.46144C1 10.289 4.33496 13.4543 5.81111 14.6679C6.02236 14.8415 6.12926 14.9294 6.28687 14.974C6.4096 15.0087 6.59023 15.0087 6.71296 14.974C6.87087 14.9293 6.97701 14.8423 7.18907 14.668C8.66521 13.4544 12 10.2894 12 6.46179C12 5.01328 11.4206 3.62392 10.3891 2.59967C9.35765 1.57542 7.95879 1 6.5001 1C5.0414 1 3.64238 1.57551 2.61092 2.59976C1.57947 3.62401 1 5.01293 1 6.46144Z" stroke="black" stroke-linecap="round" stroke-linejoin="round"/>
<path d="M4.92859 5.7334C4.92859 6.6048 5.63215 7.3112 6.50003 7.3112C7.36791 7.3112 8.07147 6.6048 8.07147 5.7334C8.07147 4.86201 7.36791 4.1556 6.50003 4.1556C5.63215 4.1556 4.92859 4.86201 4.92859 5.7334Z" stroke="black" stroke-linecap="round" stroke-linejoin="round"/>
</svg>
