<?xml version="1.0" encoding="UTF-8"?>
<svg id="Calque_1" xmlns="http://www.w3.org/2000/svg" version="1.1" viewBox="0 0 841.89 327.73">
  <!-- Generator: Adobe Illustrator 29.2.1, SVG Export Plug-In . SVG Version: 2.1.0 Build 116)  -->
  <path d="M166.67,134.87c-5.51-3.49-12.17-5.24-20.02-5.24-6.2,0-11.48,1.08-15.84,3.24-4.37,2.16-7.94,5.43-10.72,9.81-2.78,4.38-4.87,9.84-6.26,16.39h-1.33v-27.12h-26.94v97.87c0,8.05,6.53,14.58,14.58,14.58h16.16v-21.63c0-3.1-.17-6.35-.48-9.73-.32-3.38-.73-6.82-1.23-10.31-.51-3.49-1.08-6.85-1.71-10.07h1.71c1.14,6.66,3.13,12.17,5.97,16.55,2.84,4.38,6.45,7.63,10.82,9.73,4.36,2.11,9.39,3.16,15.08,3.16,7.08,0,13.4-1.64,18.97-4.91,5.56-3.27,9.96-8.34,13.18-15.22,3.23-6.87,4.83-15.69,4.83-26.45,0-9.98-1.42-18.38-4.26-25.2-2.84-6.82-7.02-11.98-12.52-15.47ZM150.54,187.93c-1.2,3.61-3.1,6.52-5.69,8.73-2.59,2.22-5.91,3.33-9.96,3.33-1.77,0-3.54-.25-5.31-.75-1.78-.5-3.48-1.3-5.12-2.41-1.65-1.11-3.1-2.55-4.37-4.33-1.26-1.77-2.27-3.88-3.03-6.32-.76-2.44-1.14-5.32-1.14-8.65v-1c0-4.21.53-7.82,1.61-10.81,1.08-2.99,2.5-5.46,4.27-7.4,1.77-1.94,3.8-3.38,6.07-4.33,2.28-.94,4.62-1.41,7.02-1.41,3.8,0,6.98,1.08,9.58,3.24,2.59,2.16,4.55,5.05,5.88,8.65,1.33,3.6,1.99,7.63,1.99,12.06,0,3.99-.61,7.79-1.8,11.39Z"/>
  <path d="M193.86,117.1v102.69h30.74v-116.44h-16.98c-7.6,0-13.76,6.16-13.76,13.76Z"/>
  <path d="M313.3,131.95h-16.08v33.94c0,5.77-.47,10.7-1.42,14.81-.95,4.1-2.31,7.46-4.08,10.06-1.78,2.61-3.82,4.55-6.17,5.82-2.34,1.28-4.9,1.91-7.68,1.91-3.93,0-6.93-1.27-9.01-3.82s-3.13-7.04-3.13-13.48v-49.24h-16.08c-8.09,0-14.65,6.56-14.65,14.65v34.92c0,13.75,2.63,23.96,7.87,30.61,5.25,6.65,13.31,9.98,24.19,9.98,6.83,0,12.58-1.28,17.27-3.83,4.68-2.55,8.34-6.51,11-11.9,2.66-5.38,4.37-12.34,5.12-20.88h1.33v34.27h26.18v-73.18c0-8.09-6.56-14.65-14.65-14.65Z"/>
  <path d="M486.9,152.16c-1.26-5.04-3.2-9.23-5.79-12.56-2.59-3.33-5.79-5.82-9.58-7.49-3.79-1.66-8.28-2.49-13.46-2.49-6.2,0-11.57,1.27-16.13,3.82-4.55,2.55-8.22,6.6-11,12.14-2.78,5.55-4.62,12.92-5.5,22.12h-1.52c.12-8.76-.76-15.94-2.66-21.54-1.89-5.6-4.81-9.76-8.72-12.48-3.92-2.72-9.04-4.07-15.36-4.07s-11.29,1.24-15.65,3.74c-4.37,2.5-7.84,6.52-10.43,12.06-2.6,5.55-4.34,12.97-5.22,22.29h-1.52v-35.76h-25.99v87.83h30.74v-31.11c0-8.65.85-15.58,2.55-20.8,1.71-5.21,3.93-8.95,6.65-11.23,2.71-2.27,5.66-3.41,8.82-3.41,2.53,0,4.65.66,6.36,2,1.7,1.33,2.97,3.33,3.8,5.99.82,2.66,1.23,6.1,1.23,10.31v48.24h29.97v-31.11c0-7.98.86-14.58,2.56-19.8,1.71-5.21,3.95-9.12,6.74-11.73,2.78-2.6,5.82-3.91,9.11-3.91,2.53,0,4.61.69,6.26,2.08,1.65,1.39,2.88,3.5,3.7,6.32.82,2.83,1.23,6.35,1.23,10.56v47.58h16.09c8.08,0,14.64-6.55,14.64-14.64v-35.26c0-6.76-.63-12.67-1.9-17.72Z"/>
  <ellipse cx="261.58" cy="113.99" rx="14.98" ry="10.65"/>
  <ellipse cx="301.85" cy="113.99" rx="14.98" ry="10.65"/>
  <g>
    <path d="M536.4,186.38c-1.57,0-2.97-.23-4.19-.69-1.22-.46-2.24-1.12-3.08-2-.84-.88-1.46-1.93-1.88-3.16-.42-1.23-.63-2.63-.63-4.2s.21-2.98.63-4.3,1.03-2.45,1.83-3.41,1.79-1.69,2.99-2.23c1.19-.53,2.52-.8,3.99-.8s2.64.23,3.75.68c1.1.46,2.03,1.14,2.78,2.05s1.31,2.06,1.69,3.44c.38,1.38.53,3,.46,4.85l-15.49.15v-2.55l13.05-.15-1.45,1.56c.15-1.5.03-2.74-.38-3.73-.41-.99-.99-1.73-1.75-2.23-.76-.49-1.65-.74-2.66-.74-1.09,0-2.05.29-2.87.86s-1.46,1.41-1.92,2.51c-.46,1.1-.68,2.42-.68,3.94,0,2.31.5,4.04,1.5,5.19,1,1.15,2.44,1.73,4.32,1.73.79,0,1.46-.1,2.02-.29.56-.19,1.03-.45,1.43-.78.39-.33.71-.71.95-1.14.24-.43.44-.89.59-1.37l3.61.8c-.25.94-.6,1.78-1.05,2.51-.44.74-1.03,1.36-1.75,1.88-.72.52-1.56.91-2.51,1.18-.95.27-2.05.4-3.29.4Z"/>
    <path d="M553.97,186.38c-1.12,0-2.1-.22-2.95-.65-.85-.43-1.53-1.06-2.04-1.88-.51-.82-.76-1.85-.76-3.06,0-1.01.18-1.88.55-2.61.37-.72.93-1.33,1.69-1.81s1.72-.89,2.87-1.22c1.15-.33,2.53-.6,4.13-.8.91-.15,1.65-.29,2.21-.4.56-.11.97-.32,1.24-.61.27-.29.4-.72.4-1.27,0-.86-.3-1.6-.91-2.23-.61-.62-1.57-.93-2.89-.93-.74,0-1.45.13-2.15.38-.7.25-1.31.67-1.84,1.24-.53.57-.89,1.34-1.07,2.3l-3.73-1.22c.25-.94.63-1.77,1.12-2.51.5-.74,1.12-1.37,1.86-1.9.75-.53,1.63-.93,2.64-1.2,1.01-.27,2.11-.4,3.27-.4,1.75,0,3.2.29,4.36.86,1.15.57,2.01,1.46,2.57,2.66.56,1.21.84,2.75.84,4.62v4.03c.02.84.05,1.73.08,2.66.03.94.08,1.86.15,2.78.08.91.17,1.8.27,2.66h-3.77c-.08-.76-.15-1.55-.21-2.38-.06-.82-.12-1.64-.17-2.45h-.53c-.38.94-.89,1.82-1.54,2.64s-1.44,1.48-2.38,1.96c-.94.48-2.04.72-3.31.72ZM555.42,183.22c.51,0,1.04-.1,1.6-.29s1.1-.47,1.64-.84c.53-.37,1.04-.85,1.52-1.45.48-.6.89-1.29,1.22-2.07v-3.58l.95.19c-.41.38-.94.67-1.6.86-.66.19-1.37.35-2.13.48-.76.13-1.52.25-2.26.38s-1.43.31-2.05.55c-.62.24-1.12.58-1.48,1.03-.37.44-.55,1.05-.55,1.81,0,.94.29,1.66.88,2.17.58.51,1.34.76,2.28.76Z"/>
    <path d="M578.44,186.38c-1.37,0-2.58-.14-3.63-.42-1.05-.28-1.95-.68-2.68-1.2-.74-.52-1.31-1.14-1.73-1.86-.42-.72-.65-1.53-.7-2.42l3.27-1.1c.03.74.27,1.39.72,1.96.46.57,1.11,1.02,1.96,1.35.85.33,1.87.49,3.06.49,1.39,0,2.47-.23,3.23-.69.76-.46,1.14-1.09,1.14-1.9,0-.63-.21-1.13-.63-1.48-.42-.35-1.01-.65-1.79-.88-.77-.23-1.68-.44-2.72-.65-.91-.18-1.83-.4-2.76-.67-.93-.27-1.79-.61-2.59-1.05-.8-.43-1.43-1-1.88-1.71-.46-.71-.68-1.6-.68-2.66,0-1.17.31-2.19.93-3.06.62-.88,1.54-1.57,2.76-2.07,1.22-.51,2.66-.76,4.34-.76s3.06.23,4.22.7c1.17.47,2.1,1.14,2.8,2.02.7.88,1.12,1.9,1.27,3.06l-3.42,1.07c-.05-.84-.29-1.52-.7-2.04-.42-.52-.99-.92-1.71-1.2-.72-.28-1.57-.42-2.53-.42-1.27,0-2.26.23-2.99.69-.72.46-1.08,1.09-1.08,1.9,0,.61.22,1.1.67,1.46.44.37,1.05.66,1.83.88.77.22,1.66.44,2.64.67.99.18,1.95.4,2.89.67.94.27,1.79.6,2.55,1.01.76.41,1.36.95,1.79,1.64.43.68.65,1.56.65,2.62,0,1.32-.34,2.43-1.01,3.33s-1.65,1.58-2.93,2.04c-1.28.46-2.8.69-4.55.69Z"/>
    <path d="M600.01,186.38c-1.57,0-2.97-.23-4.19-.69-1.22-.46-2.24-1.12-3.08-2-.84-.88-1.46-1.93-1.88-3.16-.42-1.23-.63-2.63-.63-4.2s.21-2.98.63-4.3,1.03-2.45,1.83-3.41,1.79-1.69,2.99-2.23c1.19-.53,2.52-.8,3.99-.8s2.64.23,3.75.68c1.1.46,2.03,1.14,2.78,2.05s1.31,2.06,1.69,3.44c.38,1.38.53,3,.46,4.85l-15.49.15v-2.55l13.05-.15-1.45,1.56c.15-1.5.03-2.74-.38-3.73-.41-.99-.99-1.73-1.75-2.23-.76-.49-1.65-.74-2.66-.74-1.09,0-2.05.29-2.87.86s-1.46,1.41-1.92,2.51c-.46,1.1-.68,2.42-.68,3.94,0,2.31.5,4.04,1.5,5.19,1,1.15,2.44,1.73,4.32,1.73.79,0,1.46-.1,2.02-.29.56-.19,1.03-.45,1.43-.78.39-.33.71-.71.95-1.14.24-.43.44-.89.59-1.37l3.61.8c-.25.94-.6,1.78-1.05,2.51-.44.74-1.03,1.36-1.75,1.88-.72.52-1.56.91-2.51,1.18-.95.27-2.05.4-3.29.4Z"/>
    <path d="M629.57,192.58c-1.04,0-2.07-.11-3.08-.34-1.01-.23-1.95-.56-2.82-1.01-.86-.44-1.57-1.01-2.13-1.69l1.67-3.27c.66.86,1.54,1.52,2.64,1.96,1.1.44,2.28.67,3.52.67,1.42,0,2.59-.3,3.52-.89.92-.6,1.64-1.52,2.13-2.78.5-1.26.75-2.8.78-4.62l.34-3.84h-.76c-.25,1.8-.69,3.25-1.29,4.34-.61,1.09-1.35,1.88-2.23,2.36-.88.48-1.88.72-3.03.72-1.45,0-2.66-.36-3.63-1.08-.98-.72-1.71-1.8-2.21-3.23-.5-1.43-.74-3.18-.74-5.23v-8.52h4.11v7.57c0,2.44.32,4.21.95,5.33.63,1.12,1.61,1.67,2.93,1.67.68,0,1.31-.18,1.88-.53.57-.35,1.07-.89,1.48-1.6.42-.71.75-1.58.99-2.62.24-1.04.39-2.25.44-3.61v-6.2h4.15v14.69c0,1.52-.13,2.92-.38,4.19-.25,1.27-.64,2.37-1.16,3.31-.52.94-1.16,1.73-1.92,2.38s-1.66,1.13-2.68,1.45c-1.03.32-2.19.48-3.48.48Z"/>
    <path d="M653.47,186.38c-1.9,0-3.59-.41-5.06-1.22-1.47-.81-2.61-1.99-3.42-3.54-.81-1.55-1.22-3.44-1.22-5.67s.42-4.22,1.27-5.75c.85-1.52,2-2.67,3.46-3.44,1.46-.77,3.1-1.16,4.93-1.16s3.55.4,5.02,1.2c1.47.8,2.63,1.97,3.48,3.52.85,1.55,1.27,3.46,1.27,5.75s-.43,4.22-1.29,5.75c-.86,1.52-2.03,2.66-3.5,3.42-1.47.76-3.12,1.14-4.95,1.14ZM653.62,183.15c1.17,0,2.15-.27,2.95-.82.8-.54,1.41-1.34,1.85-2.38.43-1.04.65-2.27.65-3.69,0-1.52-.23-2.83-.68-3.92-.46-1.09-1.1-1.93-1.94-2.51-.84-.58-1.88-.88-3.12-.88-1.09,0-2.05.27-2.87.8-.83.53-1.45,1.31-1.88,2.34-.43,1.03-.65,2.29-.65,3.79,0,2.28.51,4.06,1.52,5.35s2.41,1.92,4.19,1.92Z"/>
    <path d="M674.28,186.38c-2.23,0-3.92-.77-5.08-2.32-1.15-1.55-1.73-3.87-1.73-6.96v-11h4.15v10.58c0,2.08.32,3.63.97,4.66.65,1.03,1.64,1.54,2.99,1.54.76,0,1.45-.19,2.05-.57.61-.38,1.13-.91,1.58-1.6.44-.69.8-1.5,1.07-2.44.27-.94.44-1.97.51-3.08v-9.09h4.11v19.78h-3.5l.23-6.28h-.69c-.33,1.55-.79,2.83-1.39,3.84-.6,1.01-1.33,1.76-2.21,2.23-.88.47-1.9.7-3.06.7Z"/>
    <path d="M690.56,185.89v-19.78h3.61l-.19,6.89h.65c.23-1.6.58-2.93,1.07-4,.48-1.07,1.15-1.89,2-2.47.85-.58,1.87-.88,3.06-.88.25,0,.54.01.86.04.32.03.67.09,1.05.19l-.19,4.38c-.36-.18-.74-.3-1.14-.36-.41-.06-.79-.1-1.14-.1-.99,0-1.85.29-2.59.86-.74.57-1.34,1.36-1.81,2.38s-.83,2.18-1.08,3.5v9.36h-4.15Z"/>
    <path d="M715.56,185.89v-26.82h4.11v26.82h-4.11Z"/>
    <path d="M727.43,162.83c-.89,0-1.56-.19-2.02-.57s-.68-.91-.68-1.6.23-1.26.68-1.64c.46-.38,1.13-.57,2.02-.57s1.57.18,2.04.55.7.92.7,1.65-.23,1.25-.7,1.62-1.15.55-2.04.55ZM725.34,185.89v-19.78h4.15v19.78h-4.15Z"/>
    <path d="M736.79,185.89v-13.51h-3.42v-3.2l5.06.27v-.65c-.71-.23-1.3-.57-1.77-1.03-.47-.46-.82-.98-1.07-1.58-.24-.6-.36-1.24-.36-1.92,0-1.07.25-1.99.74-2.78.49-.79,1.2-1.41,2.13-1.86.92-.46,2.02-.68,3.29-.68,1.04,0,1.97.13,2.8.4.82.27,1.5.62,2.04,1.05l-.38,3.77c-.51-.41-1.12-.75-1.83-1.03-.71-.28-1.42-.42-2.13-.42-.81,0-1.47.24-1.98.72-.51.48-.76,1.26-.76,2.32,0,.63.1,1.17.3,1.62.2.44.47.79.8,1.05.33.25.66.46.99.61h4.76l-.04,3.35h-5.14v13.51h-4.03Z"/>
    <path d="M758.4,186.38c-1.57,0-2.97-.23-4.19-.69-1.22-.46-2.24-1.12-3.08-2-.84-.88-1.46-1.93-1.88-3.16-.42-1.23-.63-2.63-.63-4.2s.21-2.98.63-4.3,1.03-2.45,1.83-3.41,1.79-1.69,2.99-2.23c1.19-.53,2.52-.8,3.99-.8s2.64.23,3.75.68c1.1.46,2.03,1.14,2.78,2.05s1.31,2.06,1.69,3.44c.38,1.38.53,3,.46,4.85l-15.49.15v-2.55l13.05-.15-1.45,1.56c.15-1.5.03-2.74-.38-3.73-.41-.99-.99-1.73-1.75-2.23-.76-.49-1.65-.74-2.66-.74-1.09,0-2.05.29-2.87.86s-1.46,1.41-1.92,2.51c-.46,1.1-.68,2.42-.68,3.94,0,2.31.5,4.04,1.5,5.19,1,1.15,2.44,1.73,4.32,1.73.79,0,1.46-.1,2.02-.29.56-.19,1.03-.45,1.43-.78.39-.33.71-.71.95-1.14.24-.43.44-.89.59-1.37l3.61.8c-.25.94-.6,1.78-1.05,2.51-.44.74-1.03,1.36-1.75,1.88-.72.52-1.56.91-2.51,1.18-.95.27-2.05.4-3.29.4Z"/>
  </g>
</svg>