<?xml version="1.0" encoding="UTF-8"?>
<svg id="Calque_1" xmlns="http://www.w3.org/2000/svg" version="1.1" viewBox="0 0 841.89 279.15">
  <!-- Generator: Adobe Illustrator 29.2.1, SVG Export Plug-In . SVG Version: 2.1.0 Build 116)  -->
  <g>
    <path d="M71.84,212.4c-8.59,0-15.55-6.96-15.55-15.55v-104.4h28.74v28.93h1.42c1.48-6.98,3.71-12.8,6.67-17.48,2.97-4.67,6.78-8.16,11.44-10.47,4.65-2.31,10.28-3.46,16.9-3.46,8.37,0,15.48,1.86,21.35,5.59,5.87,3.73,10.32,9.23,13.35,16.5s4.55,16.24,4.55,26.88c0,11.48-1.72,20.88-5.16,28.21-3.44,7.34-8.13,12.75-14.06,16.24-5.94,3.49-12.68,5.24-20.24,5.24-6.07,0-11.44-1.13-16.09-3.38-4.66-2.24-8.51-5.7-11.54-10.38-3.03-4.67-5.16-10.56-6.37-17.66h-1.82c.68,3.43,1.29,7.01,1.82,10.74s.98,7.39,1.32,11c.33,3.61.51,7.07.51,10.38v23.07h-17.24ZM108.9,165.02c4.32,0,7.86-1.18,10.62-3.55,2.76-2.36,4.79-5.47,6.07-9.32,1.28-3.84,1.92-7.89,1.92-12.15,0-4.73-.71-9.02-2.12-12.87-1.42-3.84-3.51-6.92-6.27-9.22-2.77-2.31-6.17-3.46-10.22-3.46-2.56,0-5.06.5-7.49,1.5-2.42,1.01-4.59,2.55-6.47,4.61-1.89,2.07-3.41,4.7-4.56,7.9s-1.72,7.04-1.72,11.53v1.07c0,3.55.41,6.62,1.22,9.22.81,2.61,1.89,4.85,3.23,6.74,1.35,1.89,2.9,3.43,4.66,4.61,1.75,1.19,3.57,2.04,5.46,2.57,1.89.53,3.77.8,5.67.8Z"/>
    <path d="M171.8,186.13v-109.54c0-8.1,6.57-14.67,14.67-14.67h18.12v124.21h-32.79Z"/>
    <path d="M248.94,188.62c-11.6,0-20.2-3.55-25.8-10.65s-8.4-17.98-8.4-32.65v-37.25c0-8.63,7-15.63,15.63-15.63h17.15v52.53c0,6.86,1.12,11.65,3.34,14.37s5.43,4.08,9.61,4.08c2.96,0,5.7-.68,8.19-2.04,2.5-1.36,4.69-3.43,6.58-6.21,1.89-2.78,3.34-6.36,4.35-10.73,1.02-4.38,1.52-9.64,1.52-15.79v-36.2h17.15c8.63,0,15.63,7,15.63,15.63v78.06h-27.93v-36.55h-1.42c-.81,9.11-2.63,16.53-5.46,22.27-2.83,5.74-6.74,9.97-11.73,12.69-5,2.72-11.13,4.08-18.42,4.08Z"/>
    <path d="M326.43,186.13v-93.69h27.72v38.15h1.62c.94-9.94,2.79-17.86,5.57-23.78,2.76-5.92,6.47-10.2,11.13-12.87,4.65-2.66,10.21-3.99,16.7-3.99s12.21,1.45,16.39,4.35c4.18,2.9,7.29,7.34,9.31,13.31,2.02,5.98,2.97,13.64,2.84,22.98h1.62c.94-9.82,2.9-17.68,5.87-23.6,2.97-5.92,6.88-10.23,11.74-12.95,4.86-2.72,10.59-4.08,17.2-4.08,5.53,0,10.32.89,14.36,2.66,4.05,1.77,7.46,4.44,10.22,7.99s4.83,8.02,6.17,13.4c1.35,5.38,2.02,11.68,2.02,18.9v37.62c0,8.62-6.99,15.62-15.62,15.62h-17.17v-50.75c0-4.5-.44-8.25-1.32-11.27-.88-3.01-2.19-5.26-3.95-6.74-1.75-1.48-3.98-2.22-6.67-2.22-3.51,0-6.75,1.39-9.71,4.17-2.97,2.78-5.36,6.95-7.19,12.51-1.82,5.56-2.73,12.6-2.73,21.12v33.18h-31.97v-51.46c0-4.5-.45-8.16-1.32-11-.89-2.84-2.23-4.97-4.05-6.39-1.82-1.42-4.08-2.13-6.78-2.13-3.37,0-6.51,1.21-9.41,3.64-2.9,2.43-5.26,6.42-7.09,11.98-1.82,5.57-2.72,12.95-2.72,22.18v33.18h-32.79Z"/>
  </g>
  <ellipse cx="243.09" cy="73.28" rx="15.98" ry="11.36"/>
  <ellipse cx="285.54" cy="73.28" rx="15.98" ry="11.36"/>
  <g>
    <path d="M538.23,151.71c-1.68,0-3.17-.24-4.46-.73s-2.39-1.2-3.29-2.13c-.89-.93-1.56-2.06-2.01-3.37s-.67-2.81-.67-4.49.22-3.18.67-4.59c.45-1.41,1.1-2.62,1.95-3.63s1.91-1.81,3.19-2.37c1.27-.57,2.69-.85,4.26-.85,1.49,0,2.82.24,4,.73,1.18.49,2.16,1.22,2.96,2.19.8.97,1.4,2.2,1.81,3.67.41,1.47.57,3.2.49,5.17l-16.52.16v-2.72l13.92-.16-1.54,1.66c.16-1.6.03-2.92-.41-3.98-.43-1.05-1.05-1.85-1.87-2.37-.81-.53-1.76-.79-2.84-.79-1.16,0-2.19.3-3.06.91-.88.61-1.56,1.5-2.05,2.68-.49,1.18-.73,2.58-.73,4.2,0,2.46.53,4.31,1.6,5.54,1.07,1.23,2.6,1.85,4.61,1.85.84,0,1.56-.1,2.15-.3.59-.2,1.1-.48,1.52-.83.42-.35.76-.76,1.01-1.22s.47-.95.63-1.46l3.86.85c-.27,1-.64,1.89-1.12,2.68-.47.79-1.1,1.46-1.87,2.01-.77.55-1.66.97-2.68,1.26s-2.19.43-3.51.43Z"/>
    <path d="M556.98,151.71c-1.19,0-2.24-.23-3.15-.69-.91-.46-1.63-1.13-2.17-2.01-.54-.88-.81-1.97-.81-3.27,0-1.08.2-2.01.59-2.78.39-.77.99-1.41,1.81-1.93s1.83-.95,3.06-1.3c1.23-.35,2.7-.64,4.4-.85.97-.16,1.76-.3,2.35-.43.59-.12,1.04-.34,1.32-.65.28-.31.43-.76.43-1.36,0-.92-.33-1.71-.97-2.37s-1.68-.99-3.08-.99c-.79,0-1.55.14-2.29.41-.75.27-1.4.71-1.97,1.32-.57.61-.95,1.43-1.14,2.46l-3.98-1.3c.27-1,.67-1.89,1.2-2.68.53-.78,1.19-1.46,1.99-2.03.8-.57,1.74-.99,2.82-1.28s2.25-.43,3.49-.43c1.87,0,3.42.3,4.65.91s2.14,1.56,2.74,2.84c.6,1.29.89,2.93.89,4.93v4.3c.03.89.05,1.84.08,2.84.03,1,.08,1.99.16,2.96.08.97.18,1.92.28,2.84h-4.02c-.08-.81-.16-1.66-.22-2.54-.07-.88-.13-1.75-.18-2.62h-.57c-.41,1-.95,1.94-1.64,2.82-.69.88-1.54,1.58-2.54,2.09s-2.18.77-3.53.77ZM558.52,148.34c.54,0,1.11-.1,1.71-.3.59-.2,1.18-.5,1.75-.89.57-.39,1.11-.91,1.62-1.54.51-.63.95-1.37,1.3-2.21v-3.81l1.01.2c-.43.41-1,.71-1.71.91-.7.2-1.46.37-2.27.51-.81.14-1.62.27-2.42.41s-1.53.33-2.19.59c-.66.26-1.19.62-1.58,1.1-.39.47-.59,1.12-.59,1.93,0,1,.31,1.77.93,2.31.62.54,1.43.81,2.44.81Z"/>
    <path d="M583.08,151.71c-1.46,0-2.75-.15-3.88-.45-1.12-.3-2.08-.72-2.86-1.28s-1.4-1.22-1.85-1.99c-.45-.77-.7-1.63-.75-2.58l3.49-1.18c.03.79.28,1.48.77,2.09.49.61,1.18,1.09,2.09,1.44.91.35,2,.53,3.27.53,1.49,0,2.64-.24,3.45-.73s1.22-1.16,1.22-2.03c0-.68-.22-1.2-.67-1.58s-1.08-.69-1.91-.93c-.83-.24-1.79-.47-2.9-.69-.97-.19-1.96-.43-2.94-.71-.99-.28-1.91-.66-2.76-1.12-.85-.46-1.52-1.07-2.01-1.83-.49-.76-.73-1.7-.73-2.84,0-1.24.33-2.33.99-3.27.66-.93,1.64-1.67,2.94-2.21,1.3-.54,2.84-.81,4.63-.81s3.26.25,4.5.75c1.24.5,2.24,1.22,2.98,2.15.74.93,1.2,2.02,1.36,3.27l-3.65,1.14c-.05-.89-.3-1.62-.75-2.17-.45-.55-1.06-.98-1.83-1.28-.77-.3-1.67-.45-2.7-.45-1.35,0-2.42.24-3.19.73-.77.49-1.16,1.16-1.16,2.03,0,.65.24,1.17.71,1.56.47.39,1.12.7,1.95.93.83.23,1.77.47,2.82.71,1.06.19,2.08.43,3.08.71,1,.28,1.91.64,2.72,1.08.81.43,1.45,1.01,1.91,1.75.46.73.69,1.66.69,2.8,0,1.41-.36,2.59-1.08,3.55-.72.96-1.76,1.68-3.12,2.17-1.37.49-2.98.73-4.85.73Z"/>
    <path d="M606.09,151.71c-1.68,0-3.17-.24-4.46-.73s-2.39-1.2-3.29-2.13c-.89-.93-1.56-2.06-2.01-3.37s-.67-2.81-.67-4.49.22-3.18.67-4.59c.45-1.41,1.1-2.62,1.95-3.63s1.91-1.81,3.19-2.37c1.27-.57,2.69-.85,4.26-.85,1.49,0,2.82.24,4,.73,1.18.49,2.16,1.22,2.96,2.19.8.97,1.4,2.2,1.81,3.67.41,1.47.57,3.2.49,5.17l-16.52.16v-2.72l13.92-.16-1.54,1.66c.16-1.6.03-2.92-.41-3.98-.43-1.05-1.05-1.85-1.87-2.37-.81-.53-1.76-.79-2.84-.79-1.16,0-2.19.3-3.06.91-.88.61-1.56,1.5-2.05,2.68-.49,1.18-.73,2.58-.73,4.2,0,2.46.53,4.31,1.6,5.54,1.07,1.23,2.6,1.85,4.61,1.85.84,0,1.56-.1,2.15-.3.59-.2,1.1-.48,1.52-.83.42-.35.76-.76,1.01-1.22s.47-.95.63-1.46l3.86.85c-.27,1-.64,1.89-1.12,2.68-.47.79-1.1,1.46-1.87,2.01-.77.55-1.66.97-2.68,1.26s-2.19.43-3.51.43Z"/>
    <path d="M637.62,158.32c-1.11,0-2.21-.12-3.29-.37-1.08-.24-2.08-.6-3-1.08-.92-.47-1.68-1.08-2.27-1.81l1.79-3.49c.7.92,1.64,1.62,2.82,2.09,1.18.47,2.43.71,3.75.71,1.51,0,2.77-.32,3.75-.95.99-.64,1.75-1.62,2.27-2.96.53-1.34.8-2.98.83-4.93l.37-4.1h-.81c-.27,1.92-.73,3.46-1.38,4.63-.65,1.16-1.44,2-2.37,2.52-.93.51-2.01.77-3.23.77-1.54,0-2.83-.39-3.88-1.16-1.04-.77-1.83-1.92-2.35-3.45-.53-1.53-.79-3.39-.79-5.58v-9.09h4.38v8.08c0,2.6.34,4.49,1.01,5.68.68,1.19,1.72,1.79,3.12,1.79.73,0,1.4-.19,2.01-.57.61-.38,1.14-.95,1.58-1.7.45-.76.8-1.69,1.05-2.8.26-1.11.41-2.39.47-3.86v-6.62h4.42v15.67c0,1.62-.14,3.11-.41,4.46s-.68,2.53-1.24,3.53c-.55,1-1.24,1.85-2.05,2.54-.81.69-1.77,1.2-2.86,1.54-1.1.34-2.33.51-3.71.51Z"/>
    <path d="M663.11,151.71c-2.03,0-3.83-.43-5.4-1.3-1.57-.87-2.79-2.12-3.65-3.77s-1.3-3.67-1.3-6.05.45-4.51,1.36-6.13c.91-1.62,2.14-2.85,3.69-3.67,1.55-.82,3.31-1.24,5.26-1.24s3.79.43,5.36,1.28c1.57.85,2.81,2.1,3.71,3.75.91,1.65,1.36,3.69,1.36,6.13s-.46,4.5-1.38,6.13c-.92,1.62-2.17,2.84-3.73,3.65-1.57.81-3.33,1.22-5.28,1.22ZM663.27,148.25c1.24,0,2.29-.29,3.15-.87.85-.58,1.51-1.43,1.97-2.54.46-1.11.69-2.42.69-3.94,0-1.62-.24-3.02-.73-4.18-.49-1.16-1.18-2.06-2.07-2.68-.89-.62-2-.93-3.33-.93-1.16,0-2.19.28-3.06.85-.88.57-1.55,1.4-2.01,2.5-.46,1.1-.69,2.44-.69,4.04,0,2.44.54,4.34,1.62,5.7,1.08,1.37,2.57,2.05,4.46,2.05Z"/>
    <path d="M685.31,151.71c-2.38,0-4.19-.83-5.42-2.48-1.23-1.65-1.85-4.13-1.85-7.43v-11.73h4.42v11.28c0,2.22.34,3.88,1.04,4.97.69,1.1,1.75,1.64,3.19,1.64.81,0,1.54-.2,2.19-.61.65-.41,1.21-.97,1.68-1.7s.85-1.6,1.14-2.6.47-2.1.55-3.29v-9.7h4.38v21.1h-3.73l.24-6.7h-.73c-.35,1.65-.85,3.02-1.48,4.1s-1.42,1.87-2.35,2.37c-.93.5-2.02.75-3.27.75Z"/>
    <path d="M702.68,151.18v-21.1h3.86l-.2,7.35h.69c.24-1.71.62-3.12,1.14-4.26.51-1.14,1.22-2.02,2.13-2.64.91-.62,2-.93,3.27-.93.27,0,.57.01.91.04.34.03.71.1,1.12.2l-.2,4.67c-.38-.19-.79-.32-1.22-.39-.43-.07-.84-.1-1.22-.1-1.05,0-1.98.3-2.76.91-.79.61-1.43,1.46-1.93,2.54-.5,1.08-.89,2.33-1.16,3.73v9.98h-4.42Z"/>
    <path d="M729.35,151.18v-28.61h4.38v28.61h-4.38Z"/>
    <path d="M742.01,126.58c-.95,0-1.66-.2-2.15-.61-.49-.41-.73-.97-.73-1.7s.24-1.34.73-1.75c.49-.41,1.2-.61,2.15-.61s1.67.2,2.17.59c.5.39.75.98.75,1.77s-.25,1.33-.75,1.73c-.5.39-1.22.59-2.17.59ZM739.78,151.18v-21.1h4.42v21.1h-4.42Z"/>
    <path d="M751.99,151.18v-14.41h-3.65v-3.41l5.4.28v-.69c-.76-.24-1.39-.61-1.89-1.1-.5-.49-.88-1.05-1.14-1.68-.26-.64-.39-1.32-.39-2.05,0-1.14.26-2.12.79-2.96.53-.84,1.29-1.5,2.27-1.99.99-.49,2.16-.73,3.51-.73,1.11,0,2.1.14,2.98.43s1.6.66,2.17,1.12l-.41,4.02c-.54-.43-1.19-.8-1.95-1.1-.76-.3-1.52-.45-2.27-.45-.87,0-1.57.26-2.11.77-.54.51-.81,1.34-.81,2.48,0,.68.11,1.25.32,1.72.22.47.5.85.85,1.12.35.27.7.49,1.05.65h5.07l-.04,3.57h-5.48v14.41h-4.3Z"/>
    <path d="M775.04,151.71c-1.68,0-3.17-.24-4.46-.73s-2.39-1.2-3.29-2.13c-.89-.93-1.56-2.06-2.01-3.37s-.67-2.81-.67-4.49.22-3.18.67-4.59c.45-1.41,1.1-2.62,1.95-3.63s1.91-1.81,3.19-2.37c1.27-.57,2.69-.85,4.26-.85,1.49,0,2.82.24,4,.73,1.18.49,2.16,1.22,2.96,2.19.8.97,1.4,2.2,1.81,3.67.41,1.47.57,3.2.49,5.17l-16.52.16v-2.72l13.92-.16-1.54,1.66c.16-1.6.03-2.92-.41-3.98-.43-1.05-1.05-1.85-1.87-2.37-.81-.53-1.76-.79-2.84-.79-1.16,0-2.19.3-3.06.91-.88.61-1.56,1.5-2.05,2.68-.49,1.18-.73,2.58-.73,4.2,0,2.46.53,4.31,1.6,5.54,1.07,1.23,2.6,1.85,4.61,1.85.84,0,1.56-.1,2.15-.3.59-.2,1.1-.48,1.52-.83.42-.35.76-.76,1.01-1.22s.47-.95.63-1.46l3.86.85c-.27,1-.64,1.89-1.12,2.68-.47.79-1.1,1.46-1.87,2.01-.77.55-1.66.97-2.68,1.26s-2.19.43-3.51.43Z"/>
    <path d="M789.78,151.66c-1,0-1.75-.22-2.25-.65-.5-.43-.75-1.1-.75-1.99,0-.95.25-1.64.75-2.09.5-.45,1.25-.67,2.25-.67s1.8.22,2.31.67.77,1.14.77,2.09c0,1.76-1.03,2.64-3.08,2.64Z"/>
  </g>
</svg>